<svg class="svg-inline--fa fa-circle fa-bounce fa-fw fa-xs" style="--fa-bounce-land-scale-x: 1.2;--fa-bounce-land-scale-y: .8;--fa-bounce-rebound: 1px; --fa-animation-delay: 0.0s;" aria-hidden="true" focusable="false" data-prefix="fas" data-icon="circle" role="img" xmlns="http://www.w3.org/2000/svg" viewBox="0 0 512 512" data-fa-i2svg="">
  <style>
    .bounce {
      -webkit-animation-name: fa-bounce;
      animation-name: fa-bounce;
      -webkit-animation-delay: var(--fa-animation-delay, 0s);
      animation-delay: var(--fa-animation-delay, 0s);
      -webkit-animation-direction: var(--fa-animation-direction, normal);
      animation-direction: var(--fa-animation-direction, normal);
      -webkit-animation-duration: var(--fa-animation-duration, 1s);
      animation-duration: var(--fa-animation-duration, 1s);
      -webkit-animation-iteration-count: var(--fa-animation-iteration-count, infinite);
      animation-iteration-count: var(--fa-animation-iteration-count, infinite);
      -webkit-animation-timing-function: var(--fa-animation-timing, cubic-bezier(0.28, 0.84, 0.42, 1));
      animation-timing-function: var(--fa-animation-timing, cubic-bezier(0.28, 0.84, 0.42, 1));
    }
  </style>
  <path class="bounce" fill="currentColor" d="M256 512A256 256 0 1 0 256 0a256 256 0 1 0 0 512z"></path>
  <path class="bounce" fill="currentColor" d="M256 512A256 256 0 1 0 256 0a256 256 0 1 0 0 512z"></path>
  <path class="bounce" fill="currentColor" d="M256 512A256 256 0 1 0 256 0a256 256 0 1 0 0 512z"></path>
</svg>

<svg class="svg-inline--fa fa-circle fa-bounce fa-fw fa-xs" style="--fa-bounce-land-scale-x: 1.2;--fa-bounce-land-scale-y: .8;--fa-bounce-rebound: 1px; --fa-animation-delay: 0.0s;" aria-hidden="true" focusable="false" data-prefix="fas" data-icon="circle" role="img" xmlns="http://www.w3.org/2000/svg" viewBox="0 0 512 512" data-fa-i2svg=""><path fill="currentColor" d="M256 512A256 256 0 1 0 256 0a256 256 0 1 0 0 512z"></path></svg>

<svg class="svg-inline--fa fa-circle fa-bounce fa-fw fa-xs" style="--fa-bounce-land-scale-x: 1.2;--fa-bounce-land-scale-y: .8;--fa-bounce-rebound: 1px; --fa-animation-delay: 0.2s;" aria-hidden="true" focusable="false" data-prefix="fas" data-icon="circle" role="img" xmlns="http://www.w3.org/2000/svg" viewBox="0 0 512 512" data-fa-i2svg=""><path fill="currentColor" d="M256 512A256 256 0 1 0 256 0a256 256 0 1 0 0 512z"></path></svg>

<svg class="svg-inline--fa fa-circle fa-bounce fa-fw fa-xs" style="--fa-bounce-land-scale-x: 1.2;--fa-bounce-land-scale-y: .8;--fa-bounce-rebound: 1px; --fa-animation-delay: 0.4s;" aria-hidden="true" focusable="false" data-prefix="fas" data-icon="circle" role="img" xmlns="http://www.w3.org/2000/svg" viewBox="0 0 512 512" data-fa-i2svg=""><path fill="currentColor" d="M256 512A256 256 0 1 0 256 0a256 256 0 1 0 0 512z"></path></svg>
