<svg width="234" height="124" viewBox="0 0 234 124" fill="none" xmlns="http://www.w3.org/2000/svg">
<path d="M85.39 37.91H72.15V20.06H63.48V28.71L61.54 26.81C55.81 21.19 47.43 18.34 36.65 18.34C14.38 18.34 0 29.73 0 47.34C0 66.31 12.67 76.34 36.65 76.34C47.88 76.34 55.74 74.23 60.67 69.89L62.57 68.22V76.11C62.57 85.87 57.55 90.04 45.79 90.04C41.38 90.04 38.12 89.48 35.8 88.32C33.81 87.33 32.56 85.9 31.9 83.87H2.64999C5.78999 98.34 17.51 103.51 46.48 103.51C75.62 103.51 88.69 95.38 88.83 77.18C86.54 73.94 85.41 69.24 85.41 62.44V37.91H85.39ZM44.98 61.51C29.32 61.51 27.62 52.01 27.62 47.92C27.62 39.56 34.11 34.56 44.98 34.56C60.85 34.56 62.56 43.9 62.56 47.92C62.56 52.01 60.85 61.51 44.98 61.51Z" fill="#009F9B"/>
<path d="M123.65 66.11C120.36 66.11 117.84 66 116.19 64.87C115.75 64.57 115.36 64.19 115.05 63.72C114.33 62.64 113.95 61.08 113.95 58.8V35.62H129.36V20.09H113.95V0H87.69V20.1H74.45V35.63H87.69V62.46C87.69 66.43 88.05 69.59 88.84 72.12C89.15 73.12 89.54 74 89.98 74.8C90.32 75.42 90.7 75.98 91.12 76.49C94.51 80.61 100.64 81.63 110.53 81.63C111.67 81.63 112.79 81.6 113.92 81.58C115.85 81.54 117.75 81.47 119.63 81.37C123.19 81.17 126.69 80.86 130.17 80.4V65.92C127.83 66.03 125.61 66.11 123.65 66.11Z" fill="#009F9B"/>
<path d="M101.29 120.94L95.32 109.28H93.29V122.69H94.68V111.08H94.72L100.62 122.69H101.9L107.82 111.1H107.86V122.69H109.25V109.28H107.28L101.29 120.94ZM112.42 122.69H113.81V109.28H112.42V122.69ZM116.96 122.69H123.68C127.44 122.69 129.41 119.76 129.41 115.98C129.41 111.77 127.38 109.28 123.48 109.28H116.96V122.69ZM118.35 110.55H123.42C126.52 110.55 127.91 112.43 127.91 115.98C127.91 120.09 125.82 121.41 123.42 121.41H118.35V110.55ZM135.43 122.69H136.82V110.55H142.08V109.28H130.17V110.55H135.43V122.69ZM142.37 118.29H140.98C141.02 119.96 141.07 123.02 145.26 123.02C148.32 123.02 149.71 121.33 149.71 118.93V109.28H148.32V118.56C148.32 121.19 147.19 121.87 145.33 121.87C143.24 121.87 142.34 120.73 142.36 118.79V118.29H142.37ZM157.34 122.69H158.73V117.06L164.76 109.28H162.96L158.04 115.67L153.12 109.28H151.32L157.35 117.06V122.69H157.34ZM166.35 122.69H176.25V121.41H167.74V109.28H166.35V122.69ZM177.99 122.69H187.89V121.41H179.38V109.28H177.99V122.69ZM198.73 117.34H192.8L195.79 110.67L198.73 117.34ZM201.08 122.69H202.69L196.61 109.28H195L188.92 122.69H190.42L192.24 118.61H199.3L201.08 122.69ZM204.39 122.69H205.78V111.23H205.82L215.25 122.69H216.86V109.28H215.47V120.74H215.43L206.05 109.28H204.38V122.69H204.39ZM219.96 122.69H226.68C230.44 122.69 232.41 119.76 232.41 115.98C232.41 111.77 230.38 109.28 226.48 109.28H219.96V122.69ZM221.35 110.55H226.42C229.52 110.55 230.91 112.43 230.91 115.98C230.91 120.09 228.82 121.41 226.42 121.41H221.35V110.55ZM104.88 102.19H105.88V95.71H100.07V96.91H104.68C104.29 99.17 103.1 101.31 99.33 101.31C95.98 101.31 94.26 99.28 94.26 95.9C94.26 92.59 96.14 90.49 99.58 90.49C101.84 90.49 103.74 91.46 104.25 93.59H105.66C105.33 91.27 103.09 89.29 99.58 89.29C95.41 89.29 92.85 92.09 92.85 95.89C92.85 99.82 95.17 102.49 99.44 102.49C101.91 102.49 103.39 101.65 104.67 99.8H104.71L104.88 102.19ZM108.11 95.91C108.11 100.35 111.37 102.51 114.94 102.51C118.51 102.51 121.77 100.35 121.77 95.91C121.77 91.47 118.51 89.31 114.94 89.31C111.37 89.3 108.11 91.47 108.11 95.91ZM109.52 95.91C109.52 92.12 112.18 90.5 114.95 90.5C117.71 90.5 120.37 92.12 120.37 95.91C120.37 99.7 117.71 101.32 114.95 101.32C112.18 101.31 109.52 99.69 109.52 95.91ZM128.56 100.71L123.7 89.61H122.19L127.81 102.18H129.22L134.78 89.61H133.37L128.56 100.71ZM140.6 102.19H141.9V90.82H146.83V89.62H135.67V90.82H140.6V102.19ZM148.61 102.19H158.75V100.99H149.91V96.27H158.29V95.08H149.91V90.82H158.61V89.62H148.61V102.19ZM171.9 97.4C171.46 99.8 169.98 101.31 166.99 101.31C163.17 101.31 161.71 98.7 161.71 95.9C161.71 92.24 163.88 90.49 166.99 90.49C169.26 90.49 171.41 91.46 171.8 93.85H173.1C172.71 90.54 169.74 89.29 166.99 89.29C162.08 89.29 160.3 93.02 160.3 95.89C160.3 99.92 162.9 102.49 166.99 102.49C170.6 102.49 172.92 100.2 173.21 97.38H171.9V97.4ZM175.56 102.19H176.86V96.13H185.95V102.19H187.25V89.62H185.95V94.94H176.86V89.62H175.56V102.19ZM209.81 18.35C196.51 18.35 190.31 24.55 187.8 28.24L186.74 29.8L185.85 28.14C183.12 23.06 178.85 18.35 166.19 18.35C156.18 18.35 148.86 21.57 143.8 28.18L143.46 28.63H141.75L141.52 27.49V20.07H131.62V37.92H116.21V58.81C116.21 63.46 117.33 63.83 123.63 63.83C125.79 63.83 128.27 63.73 130.85 63.62L132.42 63.55V80.08C137.22 79.21 140.59 77.27 142.43 75.95V48.26C142.43 40.53 146.08 36.61 153.28 36.61C159.28 36.61 162.07 39.62 162.07 46.09V80.23H187.42V48.26C187.42 40.53 191.07 36.61 198.27 36.61C204.27 36.61 207.06 39.62 207.06 46.09V80.23H233.32V38.33C233.33 20.94 218.6 18.35 209.81 18.35Z" fill="#4D4D59"/>
</svg>
