<svg width="60" height="60" viewBox="0 0 60 60" fill="none" xmlns="http://www.w3.org/2000/svg">
<mask id="mask0_561_807" style="mask-type:alpha" maskUnits="userSpaceOnUse" x="0" y="0" width="60" height="60">
<circle cx="30" cy="30" r="30" fill="black"/>
</mask>
<g mask="url(#mask0_561_807)">
<path fill-rule="evenodd" clip-rule="evenodd" d="M60 30C60 38.2347 56.6822 45.6946 51.3104 51.1156V11.6261H38.3097V58.8343C37.8731 58.9599 37.4325 59.0758 36.988 59.1818L29.9089 11.6261H11.1027L6.25091 48.3321C2.33186 43.2625 0 36.9036 0 30C0 13.4315 13.4315 0 30 0C46.5685 0 60 13.4315 60 30ZM18.3008 57.6332C20.0792 58.3871 21.9453 58.9742 23.8795 59.3752L23.3932 52.6354H18.7302L18.3008 57.6332ZM21.0462 22.8048C21.705 31.122 22.3638 38.1113 23.0226 43.7727H18.5758C18.9052 39.3465 19.7287 32.3572 21.0462 22.8048Z" fill="currentColor"/>
</g>
</svg>
